ISO-10303-21;
HEADER;
FILE_DESCRIPTION(('ViewDefinition [CoordinationView]'),'2;1');
FILE_NAME('','2026-09-15T02:06:21',(''),(''),'IfcOpenShell 0.8.5-1c5b825','IfcOpenShell 0.8.5-1c5b825','');
FILE_SCHEMA(('IFC4'));
ENDSEC;
DATA;
#1=IFCCARTESIANPOINT((0.,0.,0.));
#2=IFCAXIS2PLACEMENT3D(#1,$,$);
#3=IFCDIRECTION((0.,1.));
#4=IFCGEOMETRICREPRESENTATIONCONTEXT('Model','Model',3,1.0000000000000001E-05,#2,#3);
#5=IFCSIUNIT(*,.LENGTHUNIT.,$,.METRE.);
#6=IFCUNITASSIGNMENT((#5));
#7=IFCPROJECT('2Bu$ELPjv0YftS2ENEVBya',$,'\X2\68374F8B987976EE\X0\',$,$,$,$,(#4),#6);
#8=IFCCARTESIANPOINT((0.,0.,0.));
#9=IFCAXIS2PLACEMENT3D(#8,$,$);
#10=IFCLOCALPLACEMENT($,#9);
#11=IFCSITE('0w1BJtwdjFResLWGXLrbB1',$,'\X2\68374F8B573A5730\X0\',$,$,#10,$,$,$,$,$,$,$,$);
#12=IFCCARTESIANPOINT((0.,0.,0.));
#13=IFCAXIS2PLACEMENT3D(#12,$,$);
#14=IFCLOCALPLACEMENT($,#13);
#15=IFCBUILDING('1azTPIiYHC4w07_RDNQcTX',$,'\X2\68374F8B697C\X0\',$,$,#14,$,$,$,$,$,$);
#16=IFCCARTESIANPOINT((0.,0.,0.));
#17=IFCAXIS2PLACEMENT3D(#16,$,$);
#18=IFCLOCALPLACEMENT($,#17);
#19=IFCBUILDINGSTOREY('2osVDfiC58ffTFu0fd6inm',$,'1F',$,$,#18,$,$,$,$);
#20=IFCRELAGGREGATES('2Sl4ZTrBv7RAgDpVuLLvQ5',$,$,$,#7,(#11));
#21=IFCRELAGGREGATES('3xMH8l6HL6hvPJoK0AAM6Y',$,$,$,#11,(#15));
#22=IFCRELAGGREGATES('2J5jpASRz9H8sPM30wW5C4',$,$,$,#15,(#19));
#23=IFCCARTESIANPOINT((5.,0.10000000000000001));
#24=IFCAXIS2PLACEMENT2D(#23,$);
#25=IFCRECTANGLEPROFILEDEF(.AREA.,$,#24,10.,0.20000000000000001);
#26=IFCCARTESIANPOINT((0.,-0.10000000000000001,0.));
#27=IFCAXIS2PLACEMENT3D(#26,$,$);
#28=IFCDIRECTION((0.,0.,1.));
#29=IFCEXTRUDEDAREASOLID(#25,#27,#28,3.);
#30=IFCSHAPEREPRESENTATION(#4,'Body','SweptSolid',(#29));
#31=IFCPRODUCTDEFINITIONSHAPE($,$,(#30));
#32=IFCCARTESIANPOINT((0.,0.,0.));
#33=IFCAXIS2PLACEMENT3D(#32,$,$);
#34=IFCLOCALPLACEMENT($,#33);
#35=IFCWALL('226wRtUxr0E9lcZcDe2Nqm',$,'W1-\X2\535759165899\X0\',$,$,#34,#31,$,$);
#36=IFCCARTESIANPOINT((5.,0.10000000000000001));
#37=IFCAXIS2PLACEMENT2D(#36,$);
#38=IFCRECTANGLEPROFILEDEF(.AREA.,$,#37,10.,0.20000000000000001);
#39=IFCCARTESIANPOINT((0.,7.9000000000000004,0.));
#40=IFCAXIS2PLACEMENT3D(#39,$,$);
#41=IFCDIRECTION((0.,0.,1.));
#42=IFCEXTRUDEDAREASOLID(#38,#40,#41,3.);
#43=IFCSHAPEREPRESENTATION(#4,'Body','SweptSolid',(#42));
#44=IFCPRODUCTDEFINITIONSHAPE($,$,(#43));
#45=IFCCARTESIANPOINT((0.,0.,0.));
#46=IFCAXIS2PLACEMENT3D(#45,$,$);
#47=IFCLOCALPLACEMENT($,#46);
#48=IFCWALL('1Z3auw2L12NAYqRNpFsmRS',$,'W2-\X2\531759165899\X0\',$,$,#47,#44,$,$);
#49=IFCCARTESIANPOINT((0.10000000000000001,4.));
#50=IFCAXIS2PLACEMENT2D(#49,$);
#51=IFCRECTANGLEPROFILEDEF(.AREA.,$,#50,0.20000000000000001,8.);
#52=IFCCARTESIANPOINT((-0.10000000000000001,0.,0.));
#53=IFCAXIS2PLACEMENT3D(#52,$,$);
#54=IFCDIRECTION((0.,0.,1.));
#55=IFCEXTRUDEDAREASOLID(#51,#53,#54,3.);
#56=IFCSHAPEREPRESENTATION(#4,'Body','SweptSolid',(#55));
#57=IFCPRODUCTDEFINITIONSHAPE($,$,(#56));
#58=IFCCARTESIANPOINT((0.,0.,0.));
#59=IFCAXIS2PLACEMENT3D(#58,$,$);
#60=IFCLOCALPLACEMENT($,#59);
#61=IFCWALL('3DEAd1K_H9g9v8xeOhhBfn',$,'W3-\X2\897F59165899\X0\',$,$,#60,#57,$,$);
#62=IFCCARTESIANPOINT((0.10000000000000001,4.));
#63=IFCAXIS2PLACEMENT2D(#62,$);
#64=IFCRECTANGLEPROFILEDEF(.AREA.,$,#63,0.20000000000000001,8.);
#65=IFCCARTESIANPOINT((9.9000000000000004,0.,0.));
#66=IFCAXIS2PLACEMENT3D(#65,$,$);
#67=IFCDIRECTION((0.,0.,1.));
#68=IFCEXTRUDEDAREASOLID(#64,#66,#67,3.);
#69=IFCSHAPEREPRESENTATION(#4,'Body','SweptSolid',(#68));
#70=IFCPRODUCTDEFINITIONSHAPE($,$,(#69));
#71=IFCCARTESIANPOINT((0.,0.,0.));
#72=IFCAXIS2PLACEMENT3D(#71,$,$);
#73=IFCLOCALPLACEMENT($,#72);
#74=IFCWALL('1D5BQ72s13PxvJHl37qpcF',$,'W4-\X2\4E1C59165899\X0\',$,$,#73,#70,$,$);
#75=IFCCARTESIANPOINT((0.10000000000000001,4.));
#76=IFCAXIS2PLACEMENT2D(#75,$);
#77=IFCRECTANGLEPROFILEDEF(.AREA.,$,#76,0.20000000000000001,8.);
#78=IFCCARTESIANPOINT((4.9000000000000004,0.,0.));
#79=IFCAXIS2PLACEMENT3D(#78,$,$);
#80=IFCDIRECTION((0.,0.,1.));
#81=IFCEXTRUDEDAREASOLID(#77,#79,#80,3.);
#82=IFCSHAPEREPRESENTATION(#4,'Body','SweptSolid',(#81));
#83=IFCPRODUCTDEFINITIONSHAPE($,$,(#82));
#84=IFCCARTESIANPOINT((0.,0.,0.));
#85=IFCAXIS2PLACEMENT3D(#84,$,$);
#86=IFCLOCALPLACEMENT($,#85);
#87=IFCWALL('3DDu3mpKzDVxe9Y7v9nP_d',$,'W5-\X2\96945899\X0\',$,$,#86,#83,$,$);
#88=IFCCARTESIANPOINT((1.,0.10000000000000001));
#89=IFCAXIS2PLACEMENT2D(#88,$);
#90=IFCRECTANGLEPROFILEDEF(.AREA.,$,#89,2.,0.20000000000000001);
#91=IFCCARTESIANPOINT((2.,3.8999999999999999,0.));
#92=IFCAXIS2PLACEMENT3D(#91,$,$);
#93=IFCDIRECTION((0.,0.,1.));
#94=IFCEXTRUDEDAREASOLID(#90,#92,#93,3.);
#95=IFCSHAPEREPRESENTATION(#4,'Body','SweptSolid',(#94));
#96=IFCPRODUCTDEFINITIONSHAPE($,$,(#95));
#97=IFCCARTESIANPOINT((0.,0.,0.));
#98=IFCAXIS2PLACEMENT3D(#97,$,$);
#99=IFCLOCALPLACEMENT($,#98);
#100=IFCWALL('1J5oC84Ij9$BM21XrIJ8Wl',$,'W6-\X2\81EA75315899579B\X0\',$,$,#99,#96,$,$);
#101=IFCCARTESIANPOINT((0.10000000000000001,4.));
#102=IFCAXIS2PLACEMENT2D(#101,$);
#103=IFCRECTANGLEPROFILEDEF(.AREA.,$,#102,0.20000000000000001,8.);
#104=IFCCARTESIANPOINT((-0.080000000000000002,0.,0.));
#105=IFCAXIS2PLACEMENT3D(#104,$,$);
#106=IFCDIRECTION((0.,0.,1.));
#107=IFCEXTRUDEDAREASOLID(#103,#105,#106,3.);
#108=IFCSHAPEREPRESENTATION(#4,'Body','SweptSolid',(#107));
#109=IFCPRODUCTDEFINITIONSHAPE($,$,(#108));
#110=IFCCARTESIANPOINT((0.,0.,0.));
#111=IFCAXIS2PLACEMENT3D(#110,$,$);
#112=IFCLOCALPLACEMENT($,#111);
#113=IFCWALL('0SWmecgen8fe9Z1AfvNTms',$,'W3b-\X2\91CD590D897F59165899\X0\',$,$,#112,#109,$,$);
#114=IFCCARTESIANPOINT((0.10000000000000001,1.5));
#115=IFCAXIS2PLACEMENT2D(#114,$);
#116=IFCRECTANGLEPROFILEDEF(.AREA.,$,#115,0.20000000000000001,3.);
#117=IFCCARTESIANPOINT((0.90000000000000002,-6.,0.));
#118=IFCAXIS2PLACEMENT3D(#117,$,$);
#119=IFCDIRECTION((0.,0.,1.));
#120=IFCEXTRUDEDAREASOLID(#116,#118,#119,3.);
#121=IFCSHAPEREPRESENTATION(#4,'Body','SweptSolid',(#120));
#122=IFCPRODUCTDEFINITIONSHAPE($,$,(#121));
#123=IFCCARTESIANPOINT((0.,0.,0.));
#124=IFCAXIS2PLACEMENT3D(#123,$,$);
#125=IFCLOCALPLACEMENT($,#124);
#126=IFCWALL('3qDWe_LCP9XxJyGgfg6G5Q',$,'W8',$,$,#125,#122,$,$);
#127=IFCCARTESIANPOINT((0.10000000000000001,1.5));
#128=IFCAXIS2PLACEMENT2D(#127,$);
#129=IFCRECTANGLEPROFILEDEF(.AREA.,$,#128,0.20000000000000001,3.);
#130=IFCCARTESIANPOINT((3.8999999999999999,-6.,0.));
#131=IFCAXIS2PLACEMENT3D(#130,$,$);
#132=IFCDIRECTION((0.,0.,1.));
#133=IFCEXTRUDEDAREASOLID(#129,#131,#132,3.);
#134=IFCSHAPEREPRESENTATION(#4,'Body','SweptSolid',(#133));
#135=IFCPRODUCTDEFINITIONSHAPE($,$,(#134));
#136=IFCCARTESIANPOINT((0.,0.,0.));
#137=IFCAXIS2PLACEMENT3D(#136,$,$);
#138=IFCLOCALPLACEMENT($,#137);
#139=IFCWALL('0llLFRpDbF5fb5zz4VKN6S',$,'W9',$,$,#138,#135,$,$);
#140=IFCCARTESIANPOINT((1.5,0.10000000000000001));
#141=IFCAXIS2PLACEMENT2D(#140,$);
#142=IFCRECTANGLEPROFILEDEF(.AREA.,$,#141,3.,0.20000000000000001);
#143=IFCCARTESIANPOINT((1.,-6.0999999999999996,0.));
#144=IFCAXIS2PLACEMENT3D(#143,$,$);
#145=IFCDIRECTION((0.,0.,1.));
#146=IFCEXTRUDEDAREASOLID(#142,#144,#145,3.);
#147=IFCSHAPEREPRESENTATION(#4,'Body','SweptSolid',(#146));
#148=IFCPRODUCTDEFINITIONSHAPE($,$,(#147));
#149=IFCCARTESIANPOINT((0.,0.,0.));
#150=IFCAXIS2PLACEMENT3D(#149,$,$);
#151=IFCLOCALPLACEMENT($,#150);
#152=IFCWALL('0_bcnhMPH3z86iJa7q3arl',$,'W10',$,$,#151,#148,$,$);
#153=IFCCARTESIANPOINT((0.59999999999999998,0.10000000000000001));
#154=IFCAXIS2PLACEMENT2D(#153,$);
#155=IFCRECTANGLEPROFILEDEF(.AREA.,$,#154,1.2,0.20000000000000001);
#156=IFCCARTESIANPOINT((1.,-3.1000000000000001,0.));
#157=IFCAXIS2PLACEMENT3D(#156,$,$);
#158=IFCDIRECTION((0.,0.,1.));
#159=IFCEXTRUDEDAREASOLID(#155,#157,#158,3.);
#160=IFCSHAPEREPRESENTATION(#4,'Body','SweptSolid',(#159));
#161=IFCPRODUCTDEFINITIONSHAPE($,$,(#160));
#162=IFCCARTESIANPOINT((0.,0.,0.));
#163=IFCAXIS2PLACEMENT3D(#162,$,$);
#164=IFCLOCALPLACEMENT($,#163);
#165=IFCWALL('0Xoif_uz9BKOl6qXGiNoJh',$,'W11a',$,$,#164,#161,$,$);
#166=IFCCARTESIANPOINT((0.82499999999999996,0.10000000000000001));
#167=IFCAXIS2PLACEMENT2D(#166,$);
#168=IFCRECTANGLEPROFILEDEF(.AREA.,$,#167,1.6499999999999999,0.20000000000000001);
#169=IFCCARTESIANPOINT((2.3500000000000001,-3.1000000000000001,0.));
#170=IFCAXIS2PLACEMENT3D(#169,$,$);
#171=IFCDIRECTION((0.,0.,1.));
#172=IFCEXTRUDEDAREASOLID(#168,#170,#171,3.);
#173=IFCSHAPEREPRESENTATION(#4,'Body','SweptSolid',(#172));
#174=IFCPRODUCTDEFINITIONSHAPE($,$,(#173));
#175=IFCCARTESIANPOINT((0.,0.,0.));
#176=IFCAXIS2PLACEMENT3D(#175,$,$);
#177=IFCLOCALPLACEMENT($,#176);
#178=IFCWALL('10YSsCsMv6CArk0AmCrYQS',$,'W11b',$,$,#177,#174,$,$);
#179=IFCCARTESIANPOINT((0.10000000000000001,0.45000000000000001));
#180=IFCAXIS2PLACEMENT2D(#179,$);
#181=IFCRECTANGLEPROFILEDEF(.AREA.,$,#180,0.20000000000000001,0.90000000000000002);
#182=IFCCARTESIANPOINT((4.9000000000000004,3.,0.));
#183=IFCAXIS2PLACEMENT3D(#182,$,$);
#184=IFCDIRECTION((0.,0.,1.));
#185=IFCEXTRUDEDAREASOLID(#181,#183,#184,2.1000000000000001);
#186=IFCSHAPEREPRESENTATION(#4,'Body','SweptSolid',(#185));
#187=IFCPRODUCTDEFINITIONSHAPE($,$,(#186));
#188=IFCCARTESIANPOINT((0.,0.,0.));
#189=IFCAXIS2PLACEMENT3D(#188,$,$);
#190=IFCLOCALPLACEMENT($,#189);
#191=IFCOPENINGELEMENT('3vKOX9xR16df4qmHKXgyu6',$,'Opening-D1-\X2\969458994E0A768495E8\X0\',$,$,#190,#187,$,$);
#192=IFCRELVOIDSELEMENT('1fltoDByzBZw_xWhFg87Zm',$,$,$,#87,#191);
#193=IFCCARTESIANPOINT((0.10000000000000001,0.45000000000000001));
#194=IFCAXIS2PLACEMENT2D(#193,$);
#195=IFCRECTANGLEPROFILEDEF(.AREA.,$,#194,0.20000000000000001,0.90000000000000002);
#196=IFCCARTESIANPOINT((4.9000000000000004,3.,0.));
#197=IFCAXIS2PLACEMENT3D(#196,$,$);
#198=IFCDIRECTION((0.,0.,1.));
#199=IFCEXTRUDEDAREASOLID(#195,#197,#198,2.1000000000000001);
#200=IFCSHAPEREPRESENTATION(#4,'Body','SweptSolid',(#199));
#201=IFCPRODUCTDEFINITIONSHAPE($,$,(#200));
#202=IFCCARTESIANPOINT((0.,0.,0.));
#203=IFCAXIS2PLACEMENT3D(#202,$,$);
#204=IFCLOCALPLACEMENT($,#203);
#205=IFCDOOR('0aDJehI2j6vP00m465HX8G',$,'D1-\X2\969458994E0A768495E8\X0\',$,'\X2\5B9E672895E8\X0\',#204,#201,$,$,$,.DOOR.,$,$);
#206=IFCRELFILLSELEMENT('09MavhrqL13gToeWX1GHcl',$,$,$,#191,#205);
#207=IFCCARTESIANPOINT((0.10000000000000001,0.45000000000000001));
#208=IFCAXIS2PLACEMENT2D(#207,$);
#209=IFCRECTANGLEPROFILEDEF(.AREA.,$,#208,0.20000000000000001,0.90000000000000002);
#210=IFCCARTESIANPOINT((4.9000000000000004,3.02,0.));
#211=IFCAXIS2PLACEMENT3D(#210,$,$);
#212=IFCDIRECTION((0.,0.,1.));
#213=IFCEXTRUDEDAREASOLID(#209,#211,#212,2.1000000000000001);
#214=IFCSHAPEREPRESENTATION(#4,'Body','SweptSolid',(#213));
#215=IFCPRODUCTDEFINITIONSHAPE($,$,(#214));
#216=IFCCARTESIANPOINT((0.,0.,0.));
#217=IFCAXIS2PLACEMENT3D(#216,$,$);
#218=IFCLOCALPLACEMENT($,#217);
#219=IFCOPENINGELEMENT('0Zyhxk4bb8Nx$$xGZw$g7h',$,'Opening-D1b-\X2\91CD590D768495E8\X0\',$,$,#218,#215,$,$);
#220=IFCRELVOIDSELEMENT('19mqx01h56E9bSwLmJt$yh',$,$,$,#87,#219);
#221=IFCCARTESIANPOINT((0.10000000000000001,0.45000000000000001));
#222=IFCAXIS2PLACEMENT2D(#221,$);
#223=IFCRECTANGLEPROFILEDEF(.AREA.,$,#222,0.20000000000000001,0.90000000000000002);
#224=IFCCARTESIANPOINT((4.9000000000000004,3.02,0.));
#225=IFCAXIS2PLACEMENT3D(#224,$,$);
#226=IFCDIRECTION((0.,0.,1.));
#227=IFCEXTRUDEDAREASOLID(#223,#225,#226,2.1000000000000001);
#228=IFCSHAPEREPRESENTATION(#4,'Body','SweptSolid',(#227));
#229=IFCPRODUCTDEFINITIONSHAPE($,$,(#228));
#230=IFCCARTESIANPOINT((0.,0.,0.));
#231=IFCAXIS2PLACEMENT3D(#230,$,$);
#232=IFCLOCALPLACEMENT($,#231);
#233=IFCDOOR('3e$i0JNN92Ouu8A$g21FJJ',$,'D1b-\X2\91CD590D768495E8\X0\',$,$,#232,#229,$,$,$,$,$,$);
#234=IFCRELFILLSELEMENT('1gQRys$oL2Uf2gKF2n4Alb',$,$,$,#219,#233);
#235=IFCCARTESIANPOINT((0.45000000000000001,0.10000000000000001));
#236=IFCAXIS2PLACEMENT2D(#235,$);
#237=IFCRECTANGLEPROFILEDEF(.AREA.,$,#236,0.90000000000000002,0.20000000000000001);
#238=IFCCARTESIANPOINT((2.,-0.10000000000000001,0.));
#239=IFCAXIS2PLACEMENT3D(#238,$,$);
#240=IFCDIRECTION((0.,0.,1.));
#241=IFCEXTRUDEDAREASOLID(#237,#239,#240,2.1000000000000001);
#242=IFCSHAPEREPRESENTATION(#4,'Body','SweptSolid',(#241));
#243=IFCPRODUCTDEFINITIONSHAPE($,$,(#242));
#244=IFCCARTESIANPOINT((0.,0.,0.));
#245=IFCAXIS2PLACEMENT3D(#244,$,$);
#246=IFCLOCALPLACEMENT($,#245);
#247=IFCOPENINGELEMENT('1Tn88$flT6XvxuWvFRiqLl',$,'Opening-D3-\X2\591695E8\X0\',$,$,#246,#243,$,$);
#248=IFCRELVOIDSELEMENT('0LHypucFz2n9zZHNuqAdQC',$,$,$,#35,#247);
#249=IFCCARTESIANPOINT((0.45000000000000001,0.10000000000000001));
#250=IFCAXIS2PLACEMENT2D(#249,$);
#251=IFCRECTANGLEPROFILEDEF(.AREA.,$,#250,0.90000000000000002,0.20000000000000001);
#252=IFCCARTESIANPOINT((2.,-0.10000000000000001,0.));
#253=IFCAXIS2PLACEMENT3D(#252,$,$);
#254=IFCDIRECTION((0.,0.,1.));
#255=IFCEXTRUDEDAREASOLID(#251,#253,#254,2.1000000000000001);
#256=IFCSHAPEREPRESENTATION(#4,'Body','SweptSolid',(#255));
#257=IFCPRODUCTDEFINITIONSHAPE($,$,(#256));
#258=IFCCARTESIANPOINT((0.,0.,0.));
#259=IFCAXIS2PLACEMENT3D(#258,$,$);
#260=IFCLOCALPLACEMENT($,#259);
#261=IFCDOOR('2O2BK35rH1gPcwKuRSnrnG',$,'D3-\X2\591695E8\X0\',$,'\X2\963276D795E8\X0\',#260,#257,$,2.1000000000000001,0.90000000000000002,.DOOR.,$,$);
#262=IFCRELFILLSELEMENT('3bJNkVm7P9rRSJsdy6d0zX',$,$,$,#247,#261);
#263=IFCCARTESIANPOINT((0.59999999999999998,0.10000000000000001));
#264=IFCAXIS2PLACEMENT2D(#263,$);
#265=IFCRECTANGLEPROFILEDEF(.AREA.,$,#264,1.2,0.20000000000000001);
#266=IFCCARTESIANPOINT((6.4000000000000004,-0.10000000000000001,0.90000000000000002));
#267=IFCAXIS2PLACEMENT3D(#266,$,$);
#268=IFCDIRECTION((0.,0.,1.));
#269=IFCEXTRUDEDAREASOLID(#265,#267,#268,1.2);
#270=IFCSHAPEREPRESENTATION(#4,'Body','SweptSolid',(#269));
#271=IFCPRODUCTDEFINITIONSHAPE($,$,(#270));
#272=IFCCARTESIANPOINT((0.,0.,0.));
#273=IFCAXIS2PLACEMENT3D(#272,$,$);
#274=IFCLOCALPLACEMENT($,#273);
#275=IFCOPENINGELEMENT('0tEKiQL9T7UedIQeSIeLeV',$,'Opening-WN1-\X2\59167A97\X0\',$,$,#274,#271,$,$);
#276=IFCRELVOIDSELEMENT('3xVlaMU1zEmvrwJIQu6XMn',$,$,$,#35,#275);
#277=IFCCARTESIANPOINT((0.59999999999999998,0.10000000000000001));
#278=IFCAXIS2PLACEMENT2D(#277,$);
#279=IFCRECTANGLEPROFILEDEF(.AREA.,$,#278,1.2,0.20000000000000001);
#280=IFCCARTESIANPOINT((6.4000000000000004,-0.10000000000000001,0.90000000000000002));
#281=IFCAXIS2PLACEMENT3D(#280,$,$);
#282=IFCDIRECTION((0.,0.,1.));
#283=IFCEXTRUDEDAREASOLID(#279,#281,#282,1.2);
#284=IFCSHAPEREPRESENTATION(#4,'Body','SweptSolid',(#283));
#285=IFCPRODUCTDEFINITIONSHAPE($,$,(#284));
#286=IFCCARTESIANPOINT((0.,0.,0.));
#287=IFCAXIS2PLACEMENT3D(#286,$,$);
#288=IFCLOCALPLACEMENT($,#287);
#289=IFCWINDOW('0Nn29owaL2FxAYeSt1gwjr',$,'WN1-\X2\59167A97\X0\',$,'\X2\94DD540891D17A97\X0\',#288,#285,$,$,$,.WINDOW.,$,$);
#290=IFCRELFILLSELEMENT('27mK5hT7X7BRqXt1XY5W_w',$,$,$,#275,#289);
#291=IFCCARTESIANPOINT((0.14999999999999999,0.10000000000000001));
#292=IFCAXIS2PLACEMENT2D(#291,$);
#293=IFCRECTANGLEPROFILEDEF(.AREA.,$,#292,0.29999999999999999,0.20000000000000001);
#294=IFCCARTESIANPOINT((8.,7.9000000000000004,1.5));
#295=IFCAXIS2PLACEMENT3D(#294,$,$);
#296=IFCDIRECTION((0.,0.,1.));
#297=IFCEXTRUDEDAREASOLID(#293,#295,#296,0.90000000000000002);
#298=IFCSHAPEREPRESENTATION(#4,'Body','SweptSolid',(#297));
#299=IFCPRODUCTDEFINITIONSHAPE($,$,(#298));
#300=IFCCARTESIANPOINT((0.,0.,0.));
#301=IFCAXIS2PLACEMENT3D(#300,$,$);
#302=IFCLOCALPLACEMENT($,#301);
#303=IFCOPENINGELEMENT('3Av5QnnDvCSwnPvMyp1iwR',$,'Opening-WN3-\X2\5F025E385C0F7A97\X0\',$,$,#302,#299,$,$);
#304=IFCRELVOIDSELEMENT('2UNQbnahzAPPZq3JrUwX9K',$,$,$,#48,#303);
#305=IFCCARTESIANPOINT((0.14999999999999999,0.10000000000000001));
#306=IFCAXIS2PLACEMENT2D(#305,$);
#307=IFCRECTANGLEPROFILEDEF(.AREA.,$,#306,0.29999999999999999,0.20000000000000001);
#308=IFCCARTESIANPOINT((8.,7.9000000000000004,1.5));
#309=IFCAXIS2PLACEMENT3D(#308,$,$);
#310=IFCDIRECTION((0.,0.,1.));
#311=IFCEXTRUDEDAREASOLID(#307,#309,#310,0.90000000000000002);
#312=IFCSHAPEREPRESENTATION(#4,'Body','SweptSolid',(#311));
#313=IFCPRODUCTDEFINITIONSHAPE($,$,(#312));
#314=IFCCARTESIANPOINT((0.,0.,0.));
#315=IFCAXIS2PLACEMENT3D(#314,$,$);
#316=IFCLOCALPLACEMENT($,#315);
#317=IFCWINDOW('21LcctxO9ClAs7NlpPM6nJ',$,'WN3-\X2\5F025E385C0F7A97\X0\',$,'\X2\9AD87A97\X0\',#316,#313,$,0.90000000000000002,0.29999999999999999,$,$,$);
#318=IFCRELFILLSELEMENT('0y_fbl9lz1ruF$fsnmwGwd',$,$,$,#303,#317);
#319=IFCCARTESIANPOINT((1.6000000000000001,0.10000000000000001));
#320=IFCAXIS2PLACEMENT2D(#319,$);
#321=IFCRECTANGLEPROFILEDEF(.AREA.,$,#320,3.2000000000000002,0.20000000000000001);
#322=IFCCARTESIANPOINT((11.,-1.5,0.));
#323=IFCAXIS2PLACEMENT3D(#322,$,$);
#324=IFCDIRECTION((0.,0.,1.));
#325=IFCEXTRUDEDAREASOLID(#321,#323,#324,2.1000000000000001);
#326=IFCSHAPEREPRESENTATION(#4,'Body','SweptSolid',(#325));
#327=IFCPRODUCTDEFINITIONSHAPE($,$,(#326));
#328=IFCCARTESIANPOINT((0.,0.,0.));
#329=IFCAXIS2PLACEMENT3D(#328,$,$);
#330=IFCLOCALPLACEMENT($,#329);
#331=IFCDOOR('3s$NcwkazCweVtf0$bibAs',$,'D5-\X2\65E05F525C5E768495E8\X0\',$,'\X2\8D85592795E8\X0\',#330,#327,$,2.1000000000000001,3.2000000000000002,.DOOR.,$,$);
#332=IFCCARTESIANPOINT((0.75,0.10000000000000001));
#333=IFCAXIS2PLACEMENT2D(#332,$);
#334=IFCRECTANGLEPROFILEDEF(.AREA.,$,#333,1.5,0.20000000000000001);
#335=IFCCARTESIANPOINT((11.,4.,0.90000000000000002));
#336=IFCAXIS2PLACEMENT3D(#335,$,$);
#337=IFCDIRECTION((0.,0.,1.));
#338=IFCEXTRUDEDAREASOLID(#334,#336,#337,1.5);
#339=IFCSHAPEREPRESENTATION(#4,'Body','SweptSolid',(#338));
#340=IFCPRODUCTDEFINITIONSHAPE($,$,(#339));
#341=IFCCARTESIANPOINT((0.,0.,0.));
#342=IFCAXIS2PLACEMENT3D(#341,$,$);
#343=IFCLOCALPLACEMENT($,#342);
#344=IFCWINDOW('2ZPNbLq3f09Qt3fQTPoAGd',$,'WN2-\X2\65E05F525C5E76847A97\X0\',$,'\X2\56FA5B9A7A97\X0\',#343,#340,$,1.5,1.5,.WINDOW.,$,$);
#345=IFCCARTESIANPOINT((0.,0.));
#346=IFCCARTESIANPOINT((5.,0.));
#347=IFCCARTESIANPOINT((5.,8.));
#348=IFCCARTESIANPOINT((0.,8.));
#349=IFCCARTESIANPOINT((0.,0.));
#350=IFCPOLYLINE((#345,#346,#347,#348,#349));
#351=IFCARBITRARYCLOSEDPROFILEDEF(.AREA.,$,#350);
#352=IFCCARTESIANPOINT((0.,0.,0.));
#353=IFCAXIS2PLACEMENT3D(#352,$,$);
#354=IFCDIRECTION((0.,0.,1.));
#355=IFCEXTRUDEDAREASOLID(#351,#353,#354,2.7999999999999998);
#356=IFCSHAPEREPRESENTATION(#4,'Body','SweptSolid',(#355));
#357=IFCPRODUCTDEFINITIONSHAPE($,$,(#356));
#358=IFCCARTESIANPOINT((0.,0.,0.));
#359=IFCAXIS2PLACEMENT3D(#358,$,$);
#360=IFCLOCALPLACEMENT($,#359);
#361=IFCSPACE('30h4W45Kn42QP6g8OvkA8q',$,'A-101',$,$,#360,#357,'\X2\529E516C5BA4\X0\A',$,$,$);
#362=IFCRELAGGREGATES('0BYwAeSlr9ThCjVfCH_3eq',$,$,$,#19,(#361));
#363=IFCQUANTITYAREA('NetFloorArea',$,$,40.,$);
#364=IFCELEMENTQUANTITY('3KFSSXDi938g1RyfF3B$iY',$,'Qto_SpaceBaseQuantities',$,'BaseQuantities',(#363));
#365=IFCRELDEFINESBYPROPERTIES('1zt1800BD1zQ4eifzua_fA',$,$,$,(#361),#364);
#366=IFCCARTESIANPOINT((5.,0.));
#367=IFCCARTESIANPOINT((10.,0.));
#368=IFCCARTESIANPOINT((10.,8.));
#369=IFCCARTESIANPOINT((5.,8.));
#370=IFCCARTESIANPOINT((5.,0.));
#371=IFCPOLYLINE((#366,#367,#368,#369,#370));
#372=IFCARBITRARYCLOSEDPROFILEDEF(.AREA.,$,#371);
#373=IFCCARTESIANPOINT((0.,0.,0.));
#374=IFCAXIS2PLACEMENT3D(#373,$,$);
#375=IFCDIRECTION((0.,0.,1.));
#376=IFCEXTRUDEDAREASOLID(#372,#374,#375,2.7999999999999998);
#377=IFCSHAPEREPRESENTATION(#4,'Body','SweptSolid',(#376));
#378=IFCPRODUCTDEFINITIONSHAPE($,$,(#377));
#379=IFCCARTESIANPOINT((0.,0.,0.));
#380=IFCAXIS2PLACEMENT3D(#379,$,$);
#381=IFCLOCALPLACEMENT($,#380);
#382=IFCSPACE('1rvpDALmfCJAjL$wvQllpJ',$,'B-102',$,$,#381,#378,'\X2\529E516C5BA4\X0\B',$,$,$);
#383=IFCRELAGGREGATES('3BJTa9MlD2peNfUiTSDpIN',$,$,$,#19,(#382));
#384=IFCQUANTITYAREA('NetFloorArea',$,$,38.5,$);
#385=IFCELEMENTQUANTITY('3k5YRfbrjBvxKpz0P$1qOe',$,'Qto_SpaceBaseQuantities',$,'BaseQuantities',(#384));
#386=IFCRELDEFINESBYPROPERTIES('2VNFzvOGX8ggafWQ_zHfPg',$,$,$,(#382),#385);
#387=IFCCARTESIANPOINT((1.,-6.));
#388=IFCCARTESIANPOINT((4.,-6.));
#389=IFCCARTESIANPOINT((4.,-3.));
#390=IFCCARTESIANPOINT((1.,-3.));
#391=IFCCARTESIANPOINT((1.,-6.));
#392=IFCPOLYLINE((#387,#388,#389,#390,#391));
#393=IFCARBITRARYCLOSEDPROFILEDEF(.AREA.,$,#392);
#394=IFCCARTESIANPOINT((0.,0.,0.));
#395=IFCAXIS2PLACEMENT3D(#394,$,$);
#396=IFCDIRECTION((0.,0.,1.));
#397=IFCEXTRUDEDAREASOLID(#393,#395,#396,2.7999999999999998);
#398=IFCSHAPEREPRESENTATION(#4,'Body','SweptSolid',(#397));
#399=IFCPRODUCTDEFINITIONSHAPE($,$,(#398));
#400=IFCCARTESIANPOINT((0.,0.,0.));
#401=IFCAXIS2PLACEMENT3D(#400,$,$);
#402=IFCLOCALPLACEMENT($,#401);
#403=IFCSPACE('06YtEV4ZP7wR0GU_2FLlWj',$,'C-103',$,$,#402,#399,'\X2\8BBE590795F4\X0\',$,$,$);
#404=IFCRELAGGREGATES('2gGFqK$6XFFeh5k6g04wEy',$,$,$,#19,(#403));
#405=IFCRELCONTAINEDINSPATIALSTRUCTURE('330CJg7tP8Oeu7mjnNG6BH',$,$,$,(#35,#48,#61,#74,#87,#100,#113,#126,#139,#152,#165,#178,#205,#233,#261,#289,#317,#331,#344),#19);
ENDSEC;
END-ISO-10303-21;
